# xmcd
#
# Track frame offsets:
#	175
#	25587
#	43245
#	63212
#	88465
#	110297
#	128305
#	142115
#	158135
#	167367
#	181972
#	195120
#	199747
#
# Disc length: 3054 seconds
#
# Revision: 1
# Processed by: cddbd v1.5.1PL2 Copyright (c) Steve Scherf et al.
# Submitted via: audiograbber 1.83.01
#
DISCID=a20bec0d
DTITLE=Bob Christopher - Born On Friday The 13th
DYEAR=1994
DGENRE=Blues
TTITLE0=born on friday the 13th
TTITLE1=all these rainy days
TTITLE2=t bone shuffle
TTITLE3=moondance
TTITLE4=longways from home
TTITLE5=please tell me you're joking
TTITLE6=freddy k
TTITLE7=sugarcoated love
TTITLE8=bob's boogie
TTITLE9=across the mojave
TTITLE10=new year's resolution
TTITLE11=texas sunset
TTITLE12=summertime
EXTD=
EXTT0=
EXTT1=
EXTT2=
EXTT3=
EXTT4=
EXTT5=
EXTT6=
EXTT7=
EXTT8=
EXTT9=
EXTT10=
EXTT11=
EXTT12=
PLAYORDER=
